<mxfile host="65bd71144e">
    <diagram id="NkeulLWA98_BTMr_3VTj" name="Page-1">
        <mxGraphModel dx="1393" dy="633" grid="1" gridSize="10" guides="1" tooltips="1" connect="1" arrows="1" fold="1" page="1" pageScale="1" pageWidth="850" pageHeight="1100" math="0" shadow="0">
            <root>
                <mxCell id="0"/>
                <mxCell id="1" parent="0"/>
                <mxCell id="2" value="" style="rounded=0;whiteSpace=wrap;html=1;strokeColor=#00CC00;dashed=1;fillColor=none;" vertex="1" parent="1">
                    <mxGeometry x="230" y="280" width="280" height="280" as="geometry"/>
                </mxCell>
                <mxCell id="3" value="" style="rounded=0;whiteSpace=wrap;html=1;" vertex="1" parent="1">
                    <mxGeometry x="310" y="320" width="160" height="80" as="geometry"/>
                </mxCell>
                <mxCell id="4" value="Armoire Batteries" style="text;html=1;strokeColor=none;fillColor=none;align=center;verticalAlign=middle;whiteSpace=wrap;rounded=0;" vertex="1" parent="1">
                    <mxGeometry x="760" y="350" width="160" height="10" as="geometry"/>
                </mxCell>
                <mxCell id="5" value="" style="endArrow=none;html=1;rounded=0;" edge="1" parent="1">
                    <mxGeometry width="50" height="50" relative="1" as="geometry">
                        <mxPoint x="310" y="480" as="sourcePoint"/>
                        <mxPoint x="310" y="400" as="targetPoint"/>
                    </mxGeometry>
                </mxCell>
                <mxCell id="6" value="" style="endArrow=none;html=1;rounded=0;" edge="1" parent="1">
                    <mxGeometry width="50" height="50" relative="1" as="geometry">
                        <mxPoint x="430" y="440" as="sourcePoint"/>
                        <mxPoint x="430" y="400" as="targetPoint"/>
                    </mxGeometry>
                </mxCell>
                <mxCell id="7" value="" style="endArrow=none;html=1;rounded=0;entryX=0.5;entryY=1;entryDx=0;entryDy=0;edgeStyle=orthogonalEdgeStyle;curved=1;dashed=1;" edge="1" parent="1" target="3">
                    <mxGeometry width="50" height="50" relative="1" as="geometry">
                        <mxPoint x="310" y="480" as="sourcePoint"/>
                        <mxPoint x="360" y="430" as="targetPoint"/>
                        <Array as="points">
                            <mxPoint x="390" y="480"/>
                        </Array>
                    </mxGeometry>
                </mxCell>
                <mxCell id="8" value="" style="endArrow=none;html=1;rounded=0;entryX=0.5;entryY=1;entryDx=0;entryDy=0;edgeStyle=orthogonalEdgeStyle;curved=1;dashed=1;" edge="1" parent="1" target="3">
                    <mxGeometry width="50" height="50" relative="1" as="geometry">
                        <mxPoint x="430" y="440" as="sourcePoint"/>
                        <mxPoint x="330" y="420" as="targetPoint"/>
                        <Array as="points">
                            <mxPoint x="390" y="440"/>
                        </Array>
                    </mxGeometry>
                </mxCell>
                <mxCell id="9" value="Nombre de porte, taille, angle d'ouverture" style="text;html=1;strokeColor=none;fillColor=none;align=center;verticalAlign=middle;whiteSpace=wrap;rounded=0;" vertex="1" parent="1">
                    <mxGeometry x="310" y="490" width="160" height="30" as="geometry"/>
                </mxCell>
                <mxCell id="10" value="Représentation symbolique uniquement" style="text;html=1;strokeColor=none;fillColor=none;align=center;verticalAlign=middle;whiteSpace=wrap;rounded=0;" vertex="1" parent="1">
                    <mxGeometry x="550" y="425" width="130" height="30" as="geometry"/>
                </mxCell>
                <mxCell id="11" value="" style="shape=curlyBracket;whiteSpace=wrap;html=1;rounded=1;flipH=1;labelPosition=right;verticalLabelPosition=middle;align=left;verticalAlign=middle;" vertex="1" parent="1">
                    <mxGeometry x="530" y="400" width="20" height="80" as="geometry"/>
                </mxCell>
                <mxCell id="12" value="" style="rounded=0;whiteSpace=wrap;html=1;strokeColor=#FF8000;fillColor=default;" vertex="1" parent="1">
                    <mxGeometry x="300" y="320" width="10" height="80" as="geometry"/>
                </mxCell>
                <mxCell id="13" value="" style="rounded=0;whiteSpace=wrap;html=1;strokeColor=#FF8000;fillColor=default;" vertex="1" parent="1">
                    <mxGeometry x="470" y="320" width="10" height="80" as="geometry"/>
                </mxCell>
                <mxCell id="14" value="" style="endArrow=classic;html=1;rounded=0;" edge="1" parent="1">
                    <mxGeometry width="50" height="50" relative="1" as="geometry">
                        <mxPoint x="550" y="330" as="sourcePoint"/>
                        <mxPoint x="480" y="329.9999999999999" as="targetPoint"/>
                    </mxGeometry>
                </mxCell>
                <mxCell id="15" value="Panneau dégondable D/G + épaisseur,&lt;br&gt;besoin de conseils" style="text;html=1;strokeColor=none;fillColor=none;align=center;verticalAlign=middle;whiteSpace=wrap;rounded=0;" vertex="1" parent="1">
                    <mxGeometry x="550" y="310" width="130" height="40" as="geometry"/>
                </mxCell>
                <mxCell id="16" value="" style="endArrow=classic;html=1;rounded=0;" edge="1" parent="1">
                    <mxGeometry width="50" height="50" relative="1" as="geometry">
                        <mxPoint x="720" y="360" as="sourcePoint"/>
                        <mxPoint x="440" y="359.5" as="targetPoint"/>
                    </mxGeometry>
                </mxCell>
                <mxCell id="17" value="" style="endArrow=none;html=1;rounded=0;curved=1;strokeColor=#FF0000;endFill=0;startArrow=oval;startFill=1;" edge="1" parent="1">
                    <mxGeometry width="50" height="50" relative="1" as="geometry">
                        <mxPoint x="470" y="320" as="sourcePoint"/>
                        <mxPoint x="470" y="240" as="targetPoint"/>
                    </mxGeometry>
                </mxCell>
                <mxCell id="18" value="" style="endArrow=none;html=1;rounded=0;curved=1;strokeColor=#FF0000;endFill=0;startArrow=oval;startFill=1;" edge="1" parent="1">
                    <mxGeometry width="50" height="50" relative="1" as="geometry">
                        <mxPoint x="509.52" y="280" as="sourcePoint"/>
                        <mxPoint x="510" y="240" as="targetPoint"/>
                    </mxGeometry>
                </mxCell>
                <mxCell id="19" value="" style="endArrow=none;html=1;rounded=0;curved=1;strokeColor=#FF0000;endFill=0;startArrow=oval;startFill=1;" edge="1" parent="1">
                    <mxGeometry width="50" height="50" relative="1" as="geometry">
                        <mxPoint x="310" y="320" as="sourcePoint"/>
                        <mxPoint x="310" y="240" as="targetPoint"/>
                    </mxGeometry>
                </mxCell>
                <mxCell id="20" value="" style="endArrow=none;html=1;rounded=0;curved=1;strokeColor=#FF0000;endFill=0;startArrow=oval;startFill=1;" edge="1" parent="1">
                    <mxGeometry width="50" height="50" relative="1" as="geometry">
                        <mxPoint x="230" y="280" as="sourcePoint"/>
                        <mxPoint x="230.48000000000002" y="240" as="targetPoint"/>
                    </mxGeometry>
                </mxCell>
                <mxCell id="21" value="" style="endArrow=none;html=1;rounded=0;curved=1;strokeColor=#FF0000;" edge="1" parent="1">
                    <mxGeometry width="50" height="50" relative="1" as="geometry">
                        <mxPoint x="520" y="250" as="sourcePoint"/>
                        <mxPoint x="460" y="250" as="targetPoint"/>
                    </mxGeometry>
                </mxCell>
                <mxCell id="22" value="" style="endArrow=none;html=1;rounded=0;curved=1;strokeColor=#FF0000;" edge="1" parent="1">
                    <mxGeometry width="50" height="50" relative="1" as="geometry">
                        <mxPoint x="320" y="250" as="sourcePoint"/>
                        <mxPoint x="220" y="250" as="targetPoint"/>
                    </mxGeometry>
                </mxCell>
                <mxCell id="23" value="" style="endArrow=none;html=1;rounded=0;curved=1;strokeColor=#FF0000;" edge="1" parent="1">
                    <mxGeometry width="50" height="50" relative="1" as="geometry">
                        <mxPoint x="190" y="280" as="sourcePoint"/>
                        <mxPoint x="229.79000000000002" y="280" as="targetPoint"/>
                    </mxGeometry>
                </mxCell>
                <mxCell id="24" value="" style="endArrow=none;html=1;rounded=0;curved=1;strokeColor=#FF0000;" edge="1" parent="1">
                    <mxGeometry width="50" height="50" relative="1" as="geometry">
                        <mxPoint x="190" y="320" as="sourcePoint"/>
                        <mxPoint x="310" y="320" as="targetPoint"/>
                    </mxGeometry>
                </mxCell>
                <mxCell id="25" value="" style="endArrow=none;html=1;rounded=0;curved=1;strokeColor=#FF0000;" edge="1" parent="1">
                    <mxGeometry width="50" height="50" relative="1" as="geometry">
                        <mxPoint x="200" y="330" as="sourcePoint"/>
                        <mxPoint x="200" y="270" as="targetPoint"/>
                    </mxGeometry>
                </mxCell>
                <mxCell id="26" value="" style="endArrow=oval;html=1;rounded=0;curved=1;strokeColor=#FF0000;entryX=0;entryY=1;entryDx=0;entryDy=0;startArrow=none;startFill=0;endFill=1;" edge="1" parent="1" target="3">
                    <mxGeometry width="50" height="50" relative="1" as="geometry">
                        <mxPoint x="190" y="400" as="sourcePoint"/>
                        <mxPoint x="170.48000000000002" y="390" as="targetPoint"/>
                    </mxGeometry>
                </mxCell>
                <mxCell id="27" value="" style="endArrow=oval;html=1;rounded=0;curved=1;strokeColor=#FF0000;entryX=0;entryY=1;entryDx=0;entryDy=0;startArrow=none;startFill=0;endFill=1;" edge="1" parent="1">
                    <mxGeometry width="50" height="50" relative="1" as="geometry">
                        <mxPoint x="190" y="560" as="sourcePoint"/>
                        <mxPoint x="230" y="560" as="targetPoint"/>
                    </mxGeometry>
                </mxCell>
                <mxCell id="28" value="" style="endArrow=none;html=1;rounded=0;curved=1;strokeColor=#FF0000;" edge="1" parent="1">
                    <mxGeometry width="50" height="50" relative="1" as="geometry">
                        <mxPoint x="200" y="570" as="sourcePoint"/>
                        <mxPoint x="200" y="390" as="targetPoint"/>
                    </mxGeometry>
                </mxCell>
                <mxCell id="29" value="Espace avant" style="text;html=1;strokeColor=none;fillColor=none;align=left;verticalAlign=bottom;whiteSpace=wrap;rounded=0;fontSize=11;rotation=-90;fontColor=#FF0000;" vertex="1" parent="1">
                    <mxGeometry x="140" y="507" width="80" height="30" as="geometry"/>
                </mxCell>
                <mxCell id="30" value="Espace arrière" style="text;html=1;strokeColor=none;fillColor=none;align=left;verticalAlign=bottom;whiteSpace=wrap;rounded=0;fontSize=11;rotation=-90;fontColor=#FF0000;" vertex="1" parent="1">
                    <mxGeometry x="140" y="267" width="80" height="30" as="geometry"/>
                </mxCell>
                <mxCell id="31" value="Espace gauche" style="text;html=1;strokeColor=none;fillColor=none;align=left;verticalAlign=bottom;whiteSpace=wrap;rounded=0;fontSize=11;rotation=0;fontColor=#FF0000;" vertex="1" parent="1">
                    <mxGeometry x="230" y="215" width="80" height="30" as="geometry"/>
                </mxCell>
                <mxCell id="32" value="Espace droite" style="text;html=1;strokeColor=none;fillColor=none;align=left;verticalAlign=bottom;whiteSpace=wrap;rounded=0;fontSize=11;rotation=0;fontColor=#FF0000;" vertex="1" parent="1">
                    <mxGeometry x="470" y="215" width="80" height="30" as="geometry"/>
                </mxCell>
                <mxCell id="33" value="Espace réservé" style="text;html=1;strokeColor=none;fillColor=none;align=right;verticalAlign=bottom;whiteSpace=wrap;rounded=0;fontSize=11;rotation=0;fontColor=#00CC00;" vertex="1" parent="1">
                    <mxGeometry x="430" y="530" width="80" height="30" as="geometry"/>
                </mxCell>
                <mxCell id="34" value="" style="endArrow=none;html=1;rounded=0;" edge="1" parent="1">
                    <mxGeometry width="50" height="50" relative="1" as="geometry">
                        <mxPoint x="920" y="320" as="sourcePoint"/>
                        <mxPoint x="760" y="240" as="targetPoint"/>
                    </mxGeometry>
                </mxCell>
                <mxCell id="35" value="" style="endArrow=none;html=1;rounded=0;" edge="1" parent="1">
                    <mxGeometry width="50" height="50" relative="1" as="geometry">
                        <mxPoint x="760" y="320" as="sourcePoint"/>
                        <mxPoint x="920" y="240" as="targetPoint"/>
                    </mxGeometry>
                </mxCell>
                <mxCell id="36" value="Armoire Electrique" style="text;html=1;strokeColor=none;fillColor=none;align=center;verticalAlign=middle;whiteSpace=wrap;rounded=0;" vertex="1" parent="1">
                    <mxGeometry x="760" y="210" width="160" height="10" as="geometry"/>
                </mxCell>
                <mxCell id="37" value="Banc de charge" style="text;html=1;strokeColor=none;fillColor=none;align=center;verticalAlign=middle;whiteSpace=wrap;rounded=0;" vertex="1" parent="1">
                    <mxGeometry x="200" y="590" width="160" height="10" as="geometry"/>
                </mxCell>
                <mxCell id="38" value="Batterie de condensateurs" style="text;html=1;strokeColor=none;fillColor=none;align=center;verticalAlign=middle;whiteSpace=wrap;rounded=0;" vertex="1" parent="1">
                    <mxGeometry x="560" y="590" width="160" height="10" as="geometry"/>
                </mxCell>
                <mxCell id="39" value="Baie Informatique" style="text;html=1;strokeColor=none;fillColor=none;align=center;verticalAlign=middle;whiteSpace=wrap;rounded=0;" vertex="1" parent="1">
                    <mxGeometry x="760" y="470" width="160" height="10" as="geometry"/>
                </mxCell>
                <mxCell id="40" value="Chargeur" style="text;html=1;strokeColor=none;fillColor=none;align=center;verticalAlign=middle;whiteSpace=wrap;rounded=0;" vertex="1" parent="1">
                    <mxGeometry x="960" y="580" width="160" height="10" as="geometry"/>
                </mxCell>
                <mxCell id="41" value="Filtres Harmoniques" style="text;html=1;strokeColor=none;fillColor=none;align=center;verticalAlign=middle;whiteSpace=wrap;rounded=0;" vertex="1" parent="1">
                    <mxGeometry x="760" y="590" width="160" height="10" as="geometry"/>
                </mxCell>
                <mxCell id="42" value="Onduleur" style="text;html=1;strokeColor=none;fillColor=none;align=center;verticalAlign=middle;whiteSpace=wrap;rounded=0;" vertex="1" parent="1">
                    <mxGeometry x="960" y="230" width="160" height="10" as="geometry"/>
                </mxCell>
                <mxCell id="43" value="Tableau Général" style="text;html=1;strokeColor=none;fillColor=none;align=center;verticalAlign=middle;whiteSpace=wrap;rounded=0;" vertex="1" parent="1">
                    <mxGeometry x="760" y="200" width="160" height="10" as="geometry"/>
                </mxCell>
                <mxCell id="44" value="Convertisseur" style="text;html=1;strokeColor=none;fillColor=none;align=center;verticalAlign=middle;whiteSpace=wrap;rounded=0;" vertex="1" parent="1">
                    <mxGeometry x="960" y="210" width="160" height="10" as="geometry"/>
                </mxCell>
                <mxCell id="45" value="Résistance Point Neutre" style="text;html=1;strokeColor=none;fillColor=none;align=center;verticalAlign=middle;whiteSpace=wrap;rounded=0;" vertex="1" parent="1">
                    <mxGeometry x="360" y="590" width="160" height="10" as="geometry"/>
                </mxCell>
                <mxCell id="46" value="Tableau Divisionnaire" style="text;html=1;strokeColor=none;fillColor=none;align=center;verticalAlign=middle;whiteSpace=wrap;rounded=0;" vertex="1" parent="1">
                    <mxGeometry x="760" y="230" width="160" height="10" as="geometry"/>
                </mxCell>
                <mxCell id="47" value="Redresseur" style="text;html=1;strokeColor=none;fillColor=none;align=center;verticalAlign=middle;whiteSpace=wrap;rounded=0;" vertex="1" parent="1">
                    <mxGeometry x="960" y="590" width="160" height="10" as="geometry"/>
                </mxCell>
                <mxCell id="48" value="Coffret Electrique" style="text;html=1;strokeColor=none;fillColor=none;align=center;verticalAlign=middle;whiteSpace=wrap;rounded=0;" vertex="1" parent="1">
                    <mxGeometry x="760" y="220" width="160" height="10" as="geometry"/>
                </mxCell>
                <mxCell id="49" value="" style="endArrow=none;html=1;rounded=0;" edge="1" parent="1">
                    <mxGeometry width="50" height="50" relative="1" as="geometry">
                        <mxPoint x="800" y="550" as="sourcePoint"/>
                        <mxPoint x="800" y="490" as="targetPoint"/>
                    </mxGeometry>
                </mxCell>
                <mxCell id="50" value="" style="endArrow=none;html=1;rounded=0;" edge="1" parent="1">
                    <mxGeometry width="50" height="50" relative="1" as="geometry">
                        <mxPoint x="800" y="550" as="sourcePoint"/>
                        <mxPoint x="880" y="550" as="targetPoint"/>
                    </mxGeometry>
                </mxCell>
                <mxCell id="51" value="" style="endArrow=none;html=1;rounded=0;" edge="1" parent="1">
                    <mxGeometry width="50" height="50" relative="1" as="geometry">
                        <mxPoint x="800" y="530" as="sourcePoint"/>
                        <mxPoint x="880" y="530" as="targetPoint"/>
                    </mxGeometry>
                </mxCell>
                <mxCell id="52" value="" style="endArrow=none;html=1;rounded=0;" edge="1" parent="1">
                    <mxGeometry width="50" height="50" relative="1" as="geometry">
                        <mxPoint x="800" y="510" as="sourcePoint"/>
                        <mxPoint x="880" y="510" as="targetPoint"/>
                    </mxGeometry>
                </mxCell>
                <mxCell id="53" value="" style="endArrow=none;html=1;rounded=0;" edge="1" parent="1">
                    <mxGeometry width="50" height="50" relative="1" as="geometry">
                        <mxPoint x="800" y="490" as="sourcePoint"/>
                        <mxPoint x="880" y="490" as="targetPoint"/>
                    </mxGeometry>
                </mxCell>
                <mxCell id="54" value="" style="endArrow=none;html=1;rounded=0;" edge="1" parent="1">
                    <mxGeometry width="50" height="50" relative="1" as="geometry">
                        <mxPoint x="880" y="550" as="sourcePoint"/>
                        <mxPoint x="880" y="490" as="targetPoint"/>
                    </mxGeometry>
                </mxCell>
                <mxCell id="55" value="" style="ellipse;whiteSpace=wrap;html=1;aspect=fixed;strokeColor=#000000;fontSize=11;fontColor=#00CC00;fillColor=none;" vertex="1" parent="1">
                    <mxGeometry x="866" y="496" width="8" height="8" as="geometry"/>
                </mxCell>
                <mxCell id="56" value="" style="ellipse;whiteSpace=wrap;html=1;aspect=fixed;strokeColor=#000000;fontSize=11;fontColor=#00CC00;fillColor=none;" vertex="1" parent="1">
                    <mxGeometry x="866" y="516" width="8" height="8" as="geometry"/>
                </mxCell>
                <mxCell id="57" value="" style="ellipse;whiteSpace=wrap;html=1;aspect=fixed;strokeColor=#000000;fontSize=11;fontColor=#00CC00;fillColor=none;" vertex="1" parent="1">
                    <mxGeometry x="866" y="536" width="8" height="8" as="geometry"/>
                </mxCell>
                <mxCell id="58" value="" style="group" vertex="1" connectable="0" parent="1">
                    <mxGeometry x="810" y="496" width="40" height="8" as="geometry"/>
                </mxCell>
                <mxCell id="59" value="" style="endArrow=none;html=1;rounded=0;strokeColor=#000000;fontSize=11;fontColor=#00CC00;curved=1;" edge="1" parent="58">
                    <mxGeometry width="50" height="50" relative="1" as="geometry">
                        <mxPoint x="40" y="4" as="sourcePoint"/>
                        <mxPoint y="4" as="targetPoint"/>
                    </mxGeometry>
                </mxCell>
                <mxCell id="60" value="" style="endArrow=none;html=1;rounded=0;strokeColor=#000000;fontSize=11;fontColor=#00CC00;curved=1;" edge="1" parent="58">
                    <mxGeometry width="50" height="50" relative="1" as="geometry">
                        <mxPoint x="40" as="sourcePoint"/>
                        <mxPoint as="targetPoint"/>
                    </mxGeometry>
                </mxCell>
                <mxCell id="61" value="" style="endArrow=none;html=1;rounded=0;strokeColor=#000000;fontSize=11;fontColor=#00CC00;curved=1;" edge="1" parent="58">
                    <mxGeometry width="50" height="50" relative="1" as="geometry">
                        <mxPoint x="40" y="8" as="sourcePoint"/>
                        <mxPoint y="8" as="targetPoint"/>
                    </mxGeometry>
                </mxCell>
                <mxCell id="62" value="" style="group" vertex="1" connectable="0" parent="1">
                    <mxGeometry x="810" y="516" width="40" height="8" as="geometry"/>
                </mxCell>
                <mxCell id="63" value="" style="endArrow=none;html=1;rounded=0;strokeColor=#000000;fontSize=11;fontColor=#00CC00;curved=1;" edge="1" parent="62">
                    <mxGeometry width="50" height="50" relative="1" as="geometry">
                        <mxPoint x="40" y="4" as="sourcePoint"/>
                        <mxPoint y="4" as="targetPoint"/>
                    </mxGeometry>
                </mxCell>
                <mxCell id="64" value="" style="endArrow=none;html=1;rounded=0;strokeColor=#000000;fontSize=11;fontColor=#00CC00;curved=1;" edge="1" parent="62">
                    <mxGeometry width="50" height="50" relative="1" as="geometry">
                        <mxPoint x="40" as="sourcePoint"/>
                        <mxPoint as="targetPoint"/>
                    </mxGeometry>
                </mxCell>
                <mxCell id="65" value="" style="endArrow=none;html=1;rounded=0;strokeColor=#000000;fontSize=11;fontColor=#00CC00;curved=1;" edge="1" parent="62">
                    <mxGeometry width="50" height="50" relative="1" as="geometry">
                        <mxPoint x="40" y="8" as="sourcePoint"/>
                        <mxPoint y="8" as="targetPoint"/>
                    </mxGeometry>
                </mxCell>
                <mxCell id="66" value="" style="group" vertex="1" connectable="0" parent="1">
                    <mxGeometry x="810" y="536" width="40" height="8" as="geometry"/>
                </mxCell>
                <mxCell id="67" value="" style="endArrow=none;html=1;rounded=0;strokeColor=#000000;fontSize=11;fontColor=#00CC00;curved=1;" edge="1" parent="66">
                    <mxGeometry width="50" height="50" relative="1" as="geometry">
                        <mxPoint x="40" y="4" as="sourcePoint"/>
                        <mxPoint y="4" as="targetPoint"/>
                    </mxGeometry>
                </mxCell>
                <mxCell id="68" value="" style="endArrow=none;html=1;rounded=0;strokeColor=#000000;fontSize=11;fontColor=#00CC00;curved=1;" edge="1" parent="66">
                    <mxGeometry width="50" height="50" relative="1" as="geometry">
                        <mxPoint x="40" as="sourcePoint"/>
                        <mxPoint as="targetPoint"/>
                    </mxGeometry>
                </mxCell>
                <mxCell id="69" value="" style="endArrow=none;html=1;rounded=0;strokeColor=#000000;fontSize=11;fontColor=#00CC00;curved=1;" edge="1" parent="66">
                    <mxGeometry width="50" height="50" relative="1" as="geometry">
                        <mxPoint x="40" y="8" as="sourcePoint"/>
                        <mxPoint y="8" as="targetPoint"/>
                    </mxGeometry>
                </mxCell>
                <mxCell id="70" value="Chargeur" style="text;html=1;strokeColor=none;fillColor=none;align=center;verticalAlign=middle;whiteSpace=wrap;rounded=0;" vertex="1" parent="1">
                    <mxGeometry x="960" y="350" width="160" height="10" as="geometry"/>
                </mxCell>
                <mxCell id="71" value="" style="group" vertex="1" connectable="0" parent="1">
                    <mxGeometry x="1000" y="250" width="80" height="60" as="geometry"/>
                </mxCell>
                <mxCell id="72" value="" style="rounded=0;whiteSpace=wrap;html=1;strokeColor=#000000;fontSize=11;fontColor=#00CC00;fillColor=none;" vertex="1" parent="71">
                    <mxGeometry width="80" height="60" as="geometry"/>
                </mxCell>
                <mxCell id="73" value="" style="endArrow=none;html=1;rounded=0;" edge="1" parent="71">
                    <mxGeometry width="50" height="50" relative="1" as="geometry">
                        <mxPoint x="32" y="15" as="sourcePoint"/>
                        <mxPoint x="8" y="15" as="targetPoint"/>
                    </mxGeometry>
                </mxCell>
                <mxCell id="74" value="" style="endArrow=none;html=1;rounded=0;entryX=1;entryY=0;entryDx=0;entryDy=0;exitX=0;exitY=1;exitDx=0;exitDy=0;" edge="1" parent="71" source="72" target="72">
                    <mxGeometry width="50" height="50" relative="1" as="geometry">
                        <mxPoint x="8" y="52.5" as="sourcePoint"/>
                        <mxPoint x="72" y="7.5" as="targetPoint"/>
                    </mxGeometry>
                </mxCell>
                <mxCell id="75" value="" style="endArrow=none;html=1;rounded=0;" edge="1" parent="71">
                    <mxGeometry width="50" height="50" relative="1" as="geometry">
                        <mxPoint x="32" y="22.5" as="sourcePoint"/>
                        <mxPoint x="8" y="22.5" as="targetPoint"/>
                    </mxGeometry>
                </mxCell>
                <mxCell id="76" value="" style="endArrow=none;html=1;rounded=0;edgeStyle=orthogonalEdgeStyle;curved=1;" edge="1" parent="71">
                    <mxGeometry width="50" height="50" relative="1" as="geometry">
                        <mxPoint x="72" y="45" as="sourcePoint"/>
                        <mxPoint x="48" y="45" as="targetPoint"/>
                        <Array as="points">
                            <mxPoint x="72" y="52.5"/>
                            <mxPoint x="60" y="52.5"/>
                            <mxPoint x="60" y="37.5"/>
                            <mxPoint x="48" y="37.5"/>
                        </Array>
                    </mxGeometry>
                </mxCell>
                <mxCell id="77" value="" style="group" vertex="1" connectable="0" parent="1">
                    <mxGeometry x="1000" y="370" width="80" height="60" as="geometry"/>
                </mxCell>
                <mxCell id="78" value="" style="rounded=0;whiteSpace=wrap;html=1;strokeColor=#000000;fontSize=11;fontColor=#00CC00;fillColor=none;" vertex="1" parent="77">
                    <mxGeometry width="80" height="60" as="geometry"/>
                </mxCell>
                <mxCell id="79" value="" style="endArrow=none;html=1;rounded=0;" edge="1" parent="77">
                    <mxGeometry width="50" height="50" relative="1" as="geometry">
                        <mxPoint x="32" y="15" as="sourcePoint"/>
                        <mxPoint x="8" y="15" as="targetPoint"/>
                    </mxGeometry>
                </mxCell>
                <mxCell id="80" value="" style="endArrow=none;html=1;rounded=0;entryX=1;entryY=0;entryDx=0;entryDy=0;exitX=0;exitY=1;exitDx=0;exitDy=0;" edge="1" parent="77" source="78" target="78">
                    <mxGeometry width="50" height="50" relative="1" as="geometry">
                        <mxPoint x="8" y="52.5" as="sourcePoint"/>
                        <mxPoint x="72" y="7.5" as="targetPoint"/>
                    </mxGeometry>
                </mxCell>
                <mxCell id="81" value="" style="endArrow=none;html=1;rounded=0;" edge="1" parent="77">
                    <mxGeometry width="50" height="50" relative="1" as="geometry">
                        <mxPoint x="32" y="22.5" as="sourcePoint"/>
                        <mxPoint x="8" y="22.5" as="targetPoint"/>
                    </mxGeometry>
                </mxCell>
                <mxCell id="82" value="" style="endArrow=none;html=1;rounded=0;" edge="1" parent="77">
                    <mxGeometry width="50" height="50" relative="1" as="geometry">
                        <mxPoint x="72" y="44.64749999999998" as="sourcePoint"/>
                        <mxPoint x="48" y="44.64749999999998" as="targetPoint"/>
                    </mxGeometry>
                </mxCell>
                <mxCell id="83" value="" style="endArrow=none;html=1;rounded=0;" edge="1" parent="77">
                    <mxGeometry width="50" height="50" relative="1" as="geometry">
                        <mxPoint x="72" y="52.14749999999998" as="sourcePoint"/>
                        <mxPoint x="48" y="52.14749999999998" as="targetPoint"/>
                    </mxGeometry>
                </mxCell>
                <mxCell id="84" value="" style="group" vertex="1" connectable="0" parent="1">
                    <mxGeometry x="1000" y="490" width="80" height="60" as="geometry"/>
                </mxCell>
                <mxCell id="85" value="" style="rounded=0;whiteSpace=wrap;html=1;strokeColor=#000000;fontSize=11;fontColor=#00CC00;fillColor=none;" vertex="1" parent="84">
                    <mxGeometry width="80" height="60" as="geometry"/>
                </mxCell>
                <mxCell id="86" value="" style="endArrow=none;html=1;rounded=0;entryX=1;entryY=0;entryDx=0;entryDy=0;exitX=0;exitY=1;exitDx=0;exitDy=0;" edge="1" parent="84" source="85" target="85">
                    <mxGeometry width="50" height="50" relative="1" as="geometry">
                        <mxPoint x="8" y="52.5" as="sourcePoint"/>
                        <mxPoint x="72" y="7.5" as="targetPoint"/>
                    </mxGeometry>
                </mxCell>
                <mxCell id="87" value="" style="endArrow=none;html=1;rounded=0;edgeStyle=orthogonalEdgeStyle;curved=1;" edge="1" parent="84">
                    <mxGeometry width="50" height="50" relative="1" as="geometry">
                        <mxPoint x="72" y="45" as="sourcePoint"/>
                        <mxPoint x="48" y="45" as="targetPoint"/>
                        <Array as="points">
                            <mxPoint x="72" y="52.5"/>
                            <mxPoint x="60" y="52.5"/>
                            <mxPoint x="60" y="37.5"/>
                            <mxPoint x="48" y="37.5"/>
                        </Array>
                    </mxGeometry>
                </mxCell>
                <mxCell id="88" value="" style="endArrow=none;html=1;rounded=0;edgeStyle=orthogonalEdgeStyle;curved=1;" edge="1" parent="84">
                    <mxGeometry width="50" height="50" relative="1" as="geometry">
                        <mxPoint x="32" y="14.985000000000014" as="sourcePoint"/>
                        <mxPoint x="8" y="14.985000000000014" as="targetPoint"/>
                        <Array as="points">
                            <mxPoint x="32" y="22.485000000000014"/>
                            <mxPoint x="20" y="22.485000000000014"/>
                            <mxPoint x="20" y="7.485000000000014"/>
                            <mxPoint x="8" y="7.485000000000014"/>
                        </Array>
                    </mxGeometry>
                </mxCell>
                <mxCell id="89" value="" style="group" vertex="1" connectable="0" parent="1">
                    <mxGeometry x="1000" y="610" width="80" height="60" as="geometry"/>
                </mxCell>
                <mxCell id="90" value="" style="rounded=0;whiteSpace=wrap;html=1;strokeColor=#000000;fontSize=11;fontColor=#00CC00;fillColor=none;" vertex="1" parent="89">
                    <mxGeometry width="80" height="60" as="geometry"/>
                </mxCell>
                <mxCell id="91" value="" style="endArrow=none;html=1;rounded=0;" edge="1" parent="89">
                    <mxGeometry width="50" height="50" relative="1" as="geometry">
                        <mxPoint x="72" y="45.494999999999976" as="sourcePoint"/>
                        <mxPoint x="48" y="45.494999999999976" as="targetPoint"/>
                    </mxGeometry>
                </mxCell>
                <mxCell id="92" value="" style="endArrow=none;html=1;rounded=0;entryX=1;entryY=0;entryDx=0;entryDy=0;exitX=0;exitY=1;exitDx=0;exitDy=0;" edge="1" parent="89" source="90" target="90">
                    <mxGeometry width="50" height="50" relative="1" as="geometry">
                        <mxPoint x="8" y="52.49999999999999" as="sourcePoint"/>
                        <mxPoint x="72" y="7.5" as="targetPoint"/>
                    </mxGeometry>
                </mxCell>
                <mxCell id="93" value="" style="endArrow=none;html=1;rounded=0;" edge="1" parent="89">
                    <mxGeometry width="50" height="50" relative="1" as="geometry">
                        <mxPoint x="72" y="52.994999999999976" as="sourcePoint"/>
                        <mxPoint x="48" y="52.994999999999976" as="targetPoint"/>
                    </mxGeometry>
                </mxCell>
                <mxCell id="94" value="" style="endArrow=none;html=1;rounded=0;edgeStyle=orthogonalEdgeStyle;curved=1;" edge="1" parent="89">
                    <mxGeometry width="50" height="50" relative="1" as="geometry">
                        <mxPoint x="32" y="15.50249999999997" as="sourcePoint"/>
                        <mxPoint x="8" y="15.50249999999997" as="targetPoint"/>
                        <Array as="points">
                            <mxPoint x="32" y="23.00249999999997"/>
                            <mxPoint x="20" y="23.00249999999997"/>
                            <mxPoint x="20" y="8.00249999999997"/>
                            <mxPoint x="8" y="8.00249999999997"/>
                        </Array>
                    </mxGeometry>
                </mxCell>
                <mxCell id="95" value="" style="group" vertex="1" connectable="0" parent="1">
                    <mxGeometry x="800" y="610" width="80" height="60" as="geometry"/>
                </mxCell>
                <mxCell id="96" value="" style="rounded=0;whiteSpace=wrap;html=1;strokeColor=#000000;fontSize=11;fontColor=#00CC00;fillColor=none;" vertex="1" parent="95">
                    <mxGeometry width="80" height="60" as="geometry"/>
                </mxCell>
                <mxCell id="97" value="" style="group" vertex="1" connectable="0" parent="95">
                    <mxGeometry x="10" y="7.500000000000085" width="60" height="45.000000000000085" as="geometry"/>
                </mxCell>
                <mxCell id="98" value="" style="endArrow=none;html=1;rounded=0;" edge="1" parent="97">
                    <mxGeometry width="50" height="50" relative="1" as="geometry">
                        <mxPoint y="15" as="sourcePoint"/>
                        <mxPoint x="24" y="15" as="targetPoint"/>
                    </mxGeometry>
                </mxCell>
                <mxCell id="99" value="" style="endArrow=none;html=1;rounded=0;" edge="1" parent="97">
                    <mxGeometry width="50" height="50" relative="1" as="geometry">
                        <mxPoint x="12" y="15" as="sourcePoint"/>
                        <mxPoint x="12" as="targetPoint"/>
                    </mxGeometry>
                </mxCell>
                <mxCell id="100" value="" style="endArrow=none;html=1;rounded=0;" edge="1" parent="97" target="103">
                    <mxGeometry width="50" height="50" relative="1" as="geometry">
                        <mxPoint x="12" y="45.000000000000085" as="sourcePoint"/>
                        <mxPoint x="12.4" y="29.25" as="targetPoint"/>
                    </mxGeometry>
                </mxCell>
                <mxCell id="101" value="" style="endArrow=none;html=1;rounded=0;exitX=1;exitY=0.5;exitDx=0;exitDy=0;" edge="1" parent="97" source="105">
                    <mxGeometry width="50" height="50" relative="1" as="geometry">
                        <mxPoint x="48" y="18.750000000000085" as="sourcePoint"/>
                        <mxPoint x="48" as="targetPoint"/>
                    </mxGeometry>
                </mxCell>
                <mxCell id="102" value="" style="endArrow=none;html=1;rounded=0;" edge="1" parent="97" target="105">
                    <mxGeometry width="50" height="50" relative="1" as="geometry">
                        <mxPoint x="48" y="45.000000000000085" as="sourcePoint"/>
                        <mxPoint x="48" y="26.250000000000085" as="targetPoint"/>
                    </mxGeometry>
                </mxCell>
                <mxCell id="103" value="" style="triangle;whiteSpace=wrap;html=1;strokeColor=#000000;fontSize=11;fontColor=#00CC00;fillColor=none;rotation=-90;aspect=fixed;" vertex="1" parent="97">
                    <mxGeometry x="4" y="12" width="15" height="20.002499999999998" as="geometry"/>
                </mxCell>
                <mxCell id="104" value="" style="endArrow=none;html=1;rounded=0;" edge="1" parent="97">
                    <mxGeometry width="50" height="50" relative="1" as="geometry">
                        <mxPoint x="36" y="15" as="sourcePoint"/>
                        <mxPoint x="60" y="15" as="targetPoint"/>
                    </mxGeometry>
                </mxCell>
                <mxCell id="105" value="" style="triangle;whiteSpace=wrap;html=1;strokeColor=#000000;fontSize=11;fontColor=#00CC00;fillColor=none;rotation=-90;aspect=fixed;" vertex="1" parent="97">
                    <mxGeometry x="40" y="12" width="15" height="20.002499999999998" as="geometry"/>
                </mxCell>
                <mxCell id="106" value="" style="group" vertex="1" connectable="0" parent="1">
                    <mxGeometry x="240" y="610" width="80" height="60" as="geometry"/>
                </mxCell>
                <mxCell id="107" value="" style="rounded=0;whiteSpace=wrap;html=1;strokeColor=#000000;fontSize=11;fontColor=#00CC00;fillColor=none;" vertex="1" parent="106">
                    <mxGeometry width="80" height="60" as="geometry"/>
                </mxCell>
                <mxCell id="108" value="" style="endArrow=none;html=1;rounded=0;" edge="1" parent="106">
                    <mxGeometry width="50" height="50" relative="1" as="geometry">
                        <mxPoint x="32.18400000000001" y="14.497500000000201" as="sourcePoint"/>
                        <mxPoint x="16.18399999999999" y="14.497500000000201" as="targetPoint"/>
                    </mxGeometry>
                </mxCell>
                <mxCell id="109" value="" style="endArrow=none;html=1;rounded=0;" edge="1" parent="106">
                    <mxGeometry width="50" height="50" relative="1" as="geometry">
                        <mxPoint x="24.184000000000015" y="51.9975000000002" as="sourcePoint"/>
                        <mxPoint x="24.184000000000015" y="44.4975000000002" as="targetPoint"/>
                    </mxGeometry>
                </mxCell>
                <mxCell id="110" value="" style="endArrow=none;html=1;rounded=0;" edge="1" parent="106">
                    <mxGeometry width="50" height="50" relative="1" as="geometry">
                        <mxPoint x="32.18400000000001" y="44.4975000000002" as="sourcePoint"/>
                        <mxPoint x="16.18399999999999" y="44.4975000000002" as="targetPoint"/>
                    </mxGeometry>
                </mxCell>
                <mxCell id="111" value="" style="endArrow=none;html=1;rounded=0;" edge="1" parent="106">
                    <mxGeometry width="50" height="50" relative="1" as="geometry">
                        <mxPoint x="32.18400000000001" y="44.4975000000002" as="sourcePoint"/>
                        <mxPoint x="32.18400000000001" y="14.497500000000201" as="targetPoint"/>
                    </mxGeometry>
                </mxCell>
                <mxCell id="112" value="" style="endArrow=none;html=1;rounded=0;" edge="1" parent="106">
                    <mxGeometry width="50" height="50" relative="1" as="geometry">
                        <mxPoint x="15.999999999999977" y="44.4975000000002" as="sourcePoint"/>
                        <mxPoint x="15.999999999999977" y="14.497500000000201" as="targetPoint"/>
                    </mxGeometry>
                </mxCell>
                <mxCell id="113" value="" style="endArrow=none;html=1;rounded=0;" edge="1" parent="106">
                    <mxGeometry width="50" height="50" relative="1" as="geometry">
                        <mxPoint x="24.184000000000015" y="6.997500000000201" as="sourcePoint"/>
                        <mxPoint x="24.184000000000015" y="14.497500000000201" as="targetPoint"/>
                    </mxGeometry>
                </mxCell>
                <mxCell id="114" value="" style="endArrow=none;html=1;rounded=0;" edge="1" parent="106">
                    <mxGeometry width="50" height="50" relative="1" as="geometry">
                        <mxPoint x="55.728000000000016" y="51.9975000000002" as="sourcePoint"/>
                        <mxPoint x="55.728000000000016" y="44.4975000000002" as="targetPoint"/>
                    </mxGeometry>
                </mxCell>
                <mxCell id="115" value="" style="endArrow=none;html=1;rounded=0;" edge="1" parent="106">
                    <mxGeometry width="50" height="50" relative="1" as="geometry">
                        <mxPoint x="55.728000000000016" y="6.997500000000201" as="sourcePoint"/>
                        <mxPoint x="55.728000000000016" y="14.497500000000201" as="targetPoint"/>
                    </mxGeometry>
                </mxCell>
                <mxCell id="116" value="" style="group" vertex="1" connectable="0" parent="106">
                    <mxGeometry x="63" y="18" width="2" height="22.5" as="geometry"/>
                </mxCell>
                <mxCell id="117" value="" style="endArrow=none;html=1;rounded=0;strokeColor=#000000;fontSize=11;fontColor=#00CC00;curved=1;" edge="1" parent="116">
                    <mxGeometry width="50" height="50" relative="1" as="geometry">
                        <mxPoint x="-8" y="-3.7500000000000004" as="sourcePoint"/>
                        <mxPoint x="-8" y="3.7500000000000004" as="targetPoint"/>
                        <Array as="points">
                            <mxPoint/>
                        </Array>
                    </mxGeometry>
                </mxCell>
                <mxCell id="118" value="" style="endArrow=none;html=1;rounded=0;strokeColor=#000000;fontSize=11;fontColor=#00CC00;curved=1;" edge="1" parent="116">
                    <mxGeometry width="50" height="50" relative="1" as="geometry">
                        <mxPoint x="-8" y="3.7500000000000004" as="sourcePoint"/>
                        <mxPoint x="-8" y="11.25" as="targetPoint"/>
                        <Array as="points">
                            <mxPoint y="7.500000000000001"/>
                        </Array>
                    </mxGeometry>
                </mxCell>
                <mxCell id="119" value="" style="endArrow=none;html=1;rounded=0;strokeColor=#000000;fontSize=11;fontColor=#00CC00;curved=1;" edge="1" parent="116">
                    <mxGeometry width="50" height="50" relative="1" as="geometry">
                        <mxPoint x="-8" y="11.25" as="sourcePoint"/>
                        <mxPoint x="-8" y="18.75" as="targetPoint"/>
                        <Array as="points">
                            <mxPoint y="15.000000000000002"/>
                        </Array>
                    </mxGeometry>
                </mxCell>
                <mxCell id="120" value="" style="endArrow=none;html=1;rounded=0;strokeColor=#000000;fontSize=11;fontColor=#00CC00;curved=1;" edge="1" parent="116">
                    <mxGeometry width="50" height="50" relative="1" as="geometry">
                        <mxPoint x="-8" y="18.75" as="sourcePoint"/>
                        <mxPoint x="-8" y="26.25" as="targetPoint"/>
                        <Array as="points">
                            <mxPoint y="22.5"/>
                        </Array>
                    </mxGeometry>
                </mxCell>
                <mxCell id="121" value="" style="group" vertex="1" connectable="0" parent="1">
                    <mxGeometry x="400" y="610" width="80" height="60" as="geometry"/>
                </mxCell>
                <mxCell id="122" value="" style="endArrow=none;html=1;rounded=0;" edge="1" parent="121">
                    <mxGeometry width="50" height="50" relative="1" as="geometry">
                        <mxPoint x="48" y="15.000000000000085" as="sourcePoint"/>
                        <mxPoint x="32" y="15.000000000000085" as="targetPoint"/>
                    </mxGeometry>
                </mxCell>
                <mxCell id="123" value="" style="endArrow=none;html=1;rounded=0;" edge="1" parent="121">
                    <mxGeometry width="50" height="50" relative="1" as="geometry">
                        <mxPoint x="40" y="52.500000000000085" as="sourcePoint"/>
                        <mxPoint x="40" y="45.000000000000085" as="targetPoint"/>
                    </mxGeometry>
                </mxCell>
                <mxCell id="124" value="" style="endArrow=none;html=1;rounded=0;" edge="1" parent="121">
                    <mxGeometry width="50" height="50" relative="1" as="geometry">
                        <mxPoint x="48" y="45.000000000000085" as="sourcePoint"/>
                        <mxPoint x="32" y="45.000000000000085" as="targetPoint"/>
                    </mxGeometry>
                </mxCell>
                <mxCell id="125" value="" style="endArrow=none;html=1;rounded=0;" edge="1" parent="121">
                    <mxGeometry width="50" height="50" relative="1" as="geometry">
                        <mxPoint x="48" y="45.000000000000085" as="sourcePoint"/>
                        <mxPoint x="48" y="15.000000000000085" as="targetPoint"/>
                    </mxGeometry>
                </mxCell>
                <mxCell id="126" value="" style="endArrow=none;html=1;rounded=0;" edge="1" parent="121">
                    <mxGeometry width="50" height="50" relative="1" as="geometry">
                        <mxPoint x="31.815999999999985" y="45.000000000000085" as="sourcePoint"/>
                        <mxPoint x="31.815999999999985" y="15.000000000000085" as="targetPoint"/>
                    </mxGeometry>
                </mxCell>
                <mxCell id="127" value="" style="endArrow=none;html=1;rounded=0;" edge="1" parent="121">
                    <mxGeometry width="50" height="50" relative="1" as="geometry">
                        <mxPoint x="40" y="7.500000000000085" as="sourcePoint"/>
                        <mxPoint x="40" y="15.000000000000085" as="targetPoint"/>
                    </mxGeometry>
                </mxCell>
                <mxCell id="128" value="" style="rounded=0;whiteSpace=wrap;html=1;strokeColor=#000000;fontSize=11;fontColor=#00CC00;fillColor=none;" vertex="1" parent="121">
                    <mxGeometry width="80" height="60" as="geometry"/>
                </mxCell>
                <mxCell id="129" value="" style="group" vertex="1" connectable="0" parent="1">
                    <mxGeometry x="600" y="610" width="80" height="60" as="geometry"/>
                </mxCell>
                <mxCell id="130" value="" style="endArrow=none;html=1;rounded=0;" edge="1" parent="129">
                    <mxGeometry width="50" height="50" relative="1" as="geometry">
                        <mxPoint x="4" y="26.250000000000085" as="sourcePoint"/>
                        <mxPoint x="36" y="26.250000000000085" as="targetPoint"/>
                    </mxGeometry>
                </mxCell>
                <mxCell id="131" value="" style="endArrow=none;html=1;rounded=0;" edge="1" parent="129">
                    <mxGeometry width="50" height="50" relative="1" as="geometry">
                        <mxPoint x="20" y="26.250000000000085" as="sourcePoint"/>
                        <mxPoint x="20.00000000000009" y="7.500000000000085" as="targetPoint"/>
                    </mxGeometry>
                </mxCell>
                <mxCell id="132" value="" style="endArrow=none;html=1;rounded=0;" edge="1" parent="129">
                    <mxGeometry width="50" height="50" relative="1" as="geometry">
                        <mxPoint x="4" y="33.750000000000085" as="sourcePoint"/>
                        <mxPoint x="36" y="33.750000000000085" as="targetPoint"/>
                    </mxGeometry>
                </mxCell>
                <mxCell id="133" value="" style="endArrow=none;html=1;rounded=0;" edge="1" parent="129">
                    <mxGeometry width="50" height="50" relative="1" as="geometry">
                        <mxPoint x="20" y="52.500000000000085" as="sourcePoint"/>
                        <mxPoint x="20" y="33.750000000000085" as="targetPoint"/>
                    </mxGeometry>
                </mxCell>
                <mxCell id="134" value="" style="endArrow=none;html=1;rounded=0;" edge="1" parent="129">
                    <mxGeometry width="50" height="50" relative="1" as="geometry">
                        <mxPoint x="44" y="26.250000000000085" as="sourcePoint"/>
                        <mxPoint x="76" y="26.250000000000085" as="targetPoint"/>
                    </mxGeometry>
                </mxCell>
                <mxCell id="135" value="" style="endArrow=none;html=1;rounded=0;" edge="1" parent="129">
                    <mxGeometry width="50" height="50" relative="1" as="geometry">
                        <mxPoint x="60" y="26.250000000000085" as="sourcePoint"/>
                        <mxPoint x="60" y="7.500000000000085" as="targetPoint"/>
                    </mxGeometry>
                </mxCell>
                <mxCell id="136" value="" style="endArrow=none;html=1;rounded=0;" edge="1" parent="129">
                    <mxGeometry width="50" height="50" relative="1" as="geometry">
                        <mxPoint x="44" y="33.750000000000085" as="sourcePoint"/>
                        <mxPoint x="76" y="33.750000000000085" as="targetPoint"/>
                    </mxGeometry>
                </mxCell>
                <mxCell id="137" value="" style="endArrow=none;html=1;rounded=0;" edge="1" parent="129">
                    <mxGeometry width="50" height="50" relative="1" as="geometry">
                        <mxPoint x="60" y="52.500000000000085" as="sourcePoint"/>
                        <mxPoint x="60" y="33.750000000000085" as="targetPoint"/>
                    </mxGeometry>
                </mxCell>
                <mxCell id="138" value="" style="rounded=0;whiteSpace=wrap;html=1;strokeColor=#000000;fontSize=11;fontColor=#00CC00;fillColor=none;" vertex="1" parent="129">
                    <mxGeometry width="80" height="60" as="geometry"/>
                </mxCell>
                <mxCell id="139" value="" style="group" vertex="1" connectable="0" parent="1">
                    <mxGeometry x="800" y="370" width="80" height="60" as="geometry"/>
                </mxCell>
                <mxCell id="140" value="" style="group" vertex="1" connectable="0" parent="139">
                    <mxGeometry x="12" y="7.5" width="56" height="45" as="geometry"/>
                </mxCell>
                <mxCell id="141" value="" style="endArrow=none;html=1;rounded=0;" edge="1" parent="140">
                    <mxGeometry width="50" height="50" relative="1" as="geometry">
                        <mxPoint y="22.5" as="sourcePoint"/>
                        <mxPoint x="8" y="22.5" as="targetPoint"/>
                    </mxGeometry>
                </mxCell>
                <mxCell id="142" value="" style="endArrow=none;html=1;rounded=0;" edge="1" parent="140">
                    <mxGeometry width="50" height="50" relative="1" as="geometry">
                        <mxPoint x="8" y="45" as="sourcePoint"/>
                        <mxPoint x="8" as="targetPoint"/>
                    </mxGeometry>
                </mxCell>
                <mxCell id="143" value="" style="endArrow=none;html=1;rounded=0;" edge="1" parent="140">
                    <mxGeometry width="50" height="50" relative="1" as="geometry">
                        <mxPoint x="16" y="30" as="sourcePoint"/>
                        <mxPoint x="16" y="15" as="targetPoint"/>
                    </mxGeometry>
                </mxCell>
                <mxCell id="144" value="" style="endArrow=none;html=1;rounded=0;" edge="1" parent="140">
                    <mxGeometry width="50" height="50" relative="1" as="geometry">
                        <mxPoint x="24" y="45" as="sourcePoint"/>
                        <mxPoint x="24" as="targetPoint"/>
                    </mxGeometry>
                </mxCell>
                <mxCell id="145" value="" style="endArrow=none;html=1;rounded=0;" edge="1" parent="140">
                    <mxGeometry width="50" height="50" relative="1" as="geometry">
                        <mxPoint x="32" y="30" as="sourcePoint"/>
                        <mxPoint x="32" y="15" as="targetPoint"/>
                    </mxGeometry>
                </mxCell>
                <mxCell id="146" value="" style="endArrow=none;html=1;rounded=0;" edge="1" parent="140">
                    <mxGeometry width="50" height="50" relative="1" as="geometry">
                        <mxPoint x="40" y="45" as="sourcePoint"/>
                        <mxPoint x="40" as="targetPoint"/>
                    </mxGeometry>
                </mxCell>
                <mxCell id="147" value="" style="endArrow=none;html=1;rounded=0;" edge="1" parent="140">
                    <mxGeometry width="50" height="50" relative="1" as="geometry">
                        <mxPoint x="48" y="30" as="sourcePoint"/>
                        <mxPoint x="48" y="15" as="targetPoint"/>
                    </mxGeometry>
                </mxCell>
                <mxCell id="148" value="" style="endArrow=none;html=1;rounded=0;" edge="1" parent="140">
                    <mxGeometry width="50" height="50" relative="1" as="geometry">
                        <mxPoint x="48" y="22.5" as="sourcePoint"/>
                        <mxPoint x="56" y="22.5" as="targetPoint"/>
                    </mxGeometry>
                </mxCell>
                <mxCell id="149" value="" style="rounded=0;whiteSpace=wrap;html=1;strokeColor=#000000;fontSize=11;fontColor=#00CC00;fillColor=none;" vertex="1" parent="139">
                    <mxGeometry width="80" height="60" as="geometry"/>
                </mxCell>
            </root>
        </mxGraphModel>
    </diagram>
</mxfile>